<svg width="93" height="43" viewBox="0 0 93 43" fill="none" xmlns="http://www.w3.org/2000/svg">
<g filter="url(#filter0_b_8_22)">
<path d="M10.1857 30.5015C10.1962 34.9949 10.3709 37.5879 10.7058 38.2088C11.3018 39.3144 13.4346 39.7063 14.6526 39.8415L14.7016 39.8469C15.1923 39.9015 16.3414 40.0289 16.3414 40.4009C16.3414 40.4865 16.3321 40.5332 16.3263 40.5543C16.2874 40.5709 16.1808 40.5968 15.8938 40.5968C15.8101 40.5968 15.7228 40.595 15.6326 40.5932C15.5293 40.5912 15.4224 40.5891 15.313 40.5891H9.7574H4.12301C4.01364 40.5891 3.90675 40.5913 3.80329 40.5932C3.71321 40.5951 3.62594 40.5968 3.54219 40.5968C3.25547 40.5968 3.14889 40.571 3.10998 40.5543C3.10396 40.5332 3.09483 40.4865 3.09483 40.4007C3.09483 40.0287 4.24381 39.9013 4.73455 39.8469L4.78322 39.8415C6.00132 39.7063 8.13397 39.3144 8.73025 38.2086C8.85405 37.979 9.23075 37.2803 9.29789 30.476C9.31366 28.8662 9.30578 27.1698 9.2762 25.8219C9.22722 23.594 9.15458 23.436 9.09055 23.2968C9.00494 23.1109 8.84087 22.9818 8.65169 22.9514C6.44754 22.5955 4.13059 21.2959 2.45382 19.4749C0.650232 17.516 -0.206315 15.228 0.0421188 13.0321C0.295534 10.7919 2.49896 3.95668 3.25536 3H16.1811C16.9375 3.95679 19.1408 10.7921 19.3943 13.0321C19.9202 17.6802 15.3439 22.0871 10.9008 22.9222C10.7105 22.958 10.5525 23.0882 10.4671 23.2792C10.1739 23.9357 10.1851 30.2336 10.1857 30.5015Z" fill="#3B413A"/>
<path d="M16.1293 18.4443C16.8959 17.4627 17.5072 16.5941 17.6154 15.4397C17.6243 15.3442 17.6392 15.0027 17.3397 15.0027C13.0706 12.9749 5.8059 17.6809 2.08717 15.0043C1.75934 15.0043 1.81061 15.3381 1.82005 15.4397C1.92964 16.6238 2.5583 17.5204 3.35227 18.5246C4.68182 20.206 6.42708 21.2989 8.36868 21.4483C8.69775 21.4736 9.23996 21.4892 9.78363 21.4892C10.3013 21.4892 10.7725 21.4747 11.0441 21.4503C13.0273 21.2723 14.7984 20.1485 16.1293 18.4443Z" fill="#D6E5D8"/>
<g filter="url(#filter1_i_8_22)">
<path d="M30.7443 8.18182C30.6676 7.53409 30.3565 7.03125 29.8111 6.6733C29.2656 6.31534 28.5966 6.13636 27.804 6.13636C27.2244 6.13636 26.7173 6.23011 26.2827 6.41761C25.8523 6.60511 25.5156 6.86293 25.2727 7.19105C25.0341 7.51918 24.9148 7.89204 24.9148 8.30966C24.9148 8.65909 24.9979 8.95952 25.1641 9.21094C25.3345 9.4581 25.5518 9.66477 25.8161 9.83097C26.0803 9.9929 26.3572 10.1271 26.647 10.2337C26.9368 10.3359 27.2031 10.419 27.446 10.483L28.7756 10.8409C29.1165 10.9304 29.4957 11.054 29.9134 11.2116C30.3352 11.3693 30.7379 11.5845 31.1214 11.8572C31.5092 12.1257 31.8288 12.4709 32.0803 12.8928C32.3317 13.3146 32.4574 13.8324 32.4574 14.446C32.4574 15.1534 32.272 15.7926 31.9013 16.3636C31.5348 16.9347 30.9979 17.3885 30.2905 17.7251C29.5874 18.0618 28.733 18.2301 27.7273 18.2301C26.7898 18.2301 25.978 18.0788 25.2919 17.7763C24.6101 17.4737 24.0732 17.0518 23.6811 16.5107C23.2933 15.9695 23.0739 15.3409 23.0227 14.625H24.6591C24.7017 15.1193 24.8679 15.5284 25.1577 15.8523C25.4517 16.1719 25.8224 16.4105 26.2699 16.5682C26.7216 16.7216 27.2074 16.7983 27.7273 16.7983C28.3324 16.7983 28.8757 16.7003 29.3572 16.5043C29.8388 16.304 30.2202 16.027 30.5014 15.6733C30.7827 15.3153 30.9233 14.8977 30.9233 14.4205C30.9233 13.9858 30.8018 13.6321 30.5589 13.3594C30.3161 13.0866 29.9964 12.8651 29.6001 12.6946C29.2038 12.5241 28.7756 12.375 28.3153 12.2472L26.7045 11.7869C25.6818 11.4929 24.8722 11.0732 24.2756 10.5277C23.679 9.98224 23.3807 9.26847 23.3807 8.38636C23.3807 7.65341 23.5788 7.0142 23.9751 6.46875C24.3757 5.91903 24.9126 5.4929 25.5859 5.19034C26.2635 4.88352 27.0199 4.73011 27.8551 4.73011C28.6989 4.73011 29.4489 4.88139 30.1051 5.18395C30.7614 5.48224 31.2813 5.89133 31.6648 6.41122C32.0526 6.93111 32.2571 7.52131 32.2784 8.18182H30.7443ZM38.8478 18.2045C37.9615 18.2045 37.1838 17.9936 36.5147 17.5717C35.85 17.1499 35.3301 16.5597 34.9551 15.8011C34.5843 15.0426 34.399 14.1562 34.399 13.142C34.399 12.1193 34.5843 11.2266 34.9551 10.4638C35.3301 9.70099 35.85 9.10866 36.5147 8.68679C37.1838 8.26491 37.9615 8.05398 38.8478 8.05398C39.7342 8.05398 40.5098 8.26491 41.1745 8.68679C41.8436 9.10866 42.3635 9.70099 42.7342 10.4638C43.1092 11.2266 43.2967 12.1193 43.2967 13.142C43.2967 14.1562 43.1092 15.0426 42.7342 15.8011C42.3635 16.5597 41.8436 17.1499 41.1745 17.5717C40.5098 17.9936 39.7342 18.2045 38.8478 18.2045ZM38.8478 16.8494C39.5211 16.8494 40.0751 16.6768 40.5098 16.3317C40.9444 15.9865 41.2662 15.5327 41.475 14.9702C41.6838 14.4077 41.7882 13.7983 41.7882 13.142C41.7882 12.4858 41.6838 11.8743 41.475 11.3075C41.2662 10.7408 40.9444 10.2827 40.5098 9.93324C40.0751 9.58381 39.5211 9.40909 38.8478 9.40909C38.1745 9.40909 37.6206 9.58381 37.1859 9.93324C36.7512 10.2827 36.4295 10.7408 36.2207 11.3075C36.0119 11.8743 35.9075 12.4858 35.9075 13.142C35.9075 13.7983 36.0119 14.4077 36.2207 14.9702C36.4295 15.5327 36.7512 15.9865 37.1859 16.3317C37.6206 16.6768 38.1745 16.8494 38.8478 16.8494ZM51.7869 13.9858V8.18182H53.2955V18H51.7869V16.3381H51.6847C51.4545 16.8366 51.0966 17.2607 50.6108 17.6101C50.125 17.9553 49.5114 18.1278 48.7699 18.1278C48.1562 18.1278 47.6108 17.9936 47.1335 17.7251C46.6563 17.4524 46.2813 17.0433 46.0085 16.4979C45.7358 15.9482 45.5994 15.2557 45.5994 14.4205V8.18182H47.108V14.3182C47.108 15.0341 47.3082 15.6051 47.7088 16.0312C48.1136 16.4574 48.6293 16.6705 49.2557 16.6705C49.6307 16.6705 50.0121 16.5746 50.3999 16.3828C50.7919 16.1911 51.12 15.897 51.3842 15.5007C51.6527 15.1044 51.7869 14.5994 51.7869 13.9858ZM56.0584 18V8.18182H57.5158V9.71591H57.6436C57.8482 9.19176 58.1784 8.7848 58.6344 8.49503C59.0904 8.20099 59.638 8.05398 60.2772 8.05398C60.9249 8.05398 61.464 8.20099 61.8944 8.49503C62.329 8.7848 62.6678 9.19176 62.9107 9.71591H63.013C63.2644 9.20881 63.6415 8.80611 64.1444 8.50781C64.6472 8.20526 65.2502 8.05398 65.9533 8.05398C66.8311 8.05398 67.5492 8.32884 68.1074 8.87855C68.6657 9.42401 68.9448 10.2741 68.9448 11.429V18H67.4363V11.429C67.4363 10.7045 67.2381 10.1868 66.8418 9.87571C66.4455 9.56463 65.9789 9.40909 65.4419 9.40909C64.7516 9.40909 64.2168 9.6179 63.8375 10.0355C63.4583 10.4489 63.2686 10.973 63.2686 11.608V18H61.7346V11.2756C61.7346 10.7173 61.5534 10.2678 61.1912 9.92685C60.829 9.58168 60.3624 9.40909 59.7914 9.40909C59.3993 9.40909 59.0328 9.51349 58.6919 9.7223C58.3553 9.93111 58.0826 10.2209 57.8738 10.5916C57.6692 10.9581 57.5669 11.3821 57.5669 11.8636V18H56.0584ZM71.7029 18V8.18182H73.2115V18H71.7029ZM72.47 6.54545C72.176 6.54545 71.9224 6.44531 71.7093 6.24503C71.5005 6.04474 71.3961 5.80398 71.3961 5.52273C71.3961 5.24148 71.5005 5.00071 71.7093 4.80043C71.9224 4.60014 72.176 4.5 72.47 4.5C72.764 4.5 73.0154 4.60014 73.2243 4.80043C73.4373 5.00071 73.5439 5.24148 73.5439 5.52273C73.5439 5.80398 73.4373 6.04474 73.2243 6.24503C73.0154 6.44531 72.764 6.54545 72.47 6.54545ZM77.3807 14.4205L77.3551 12.554H77.6619L81.9574 8.18182H83.8239L79.2472 12.8097H79.1193L77.3807 14.4205ZM75.9744 18V4.90909H77.483V18H75.9744ZM82.2131 18L78.3778 13.142L79.4517 12.0938L84.1307 18H82.2131Z" fill="#3B413A"/>
</g>
<g filter="url(#filter2_i_8_22)">
<path d="M36.4659 28H34.7045C34.6004 27.4934 34.4181 27.0483 34.1577 26.6648C33.902 26.2812 33.5895 25.9593 33.2202 25.6989C32.8556 25.4337 32.4508 25.2348 32.0057 25.1023C31.5606 24.9697 31.0966 24.9034 30.6136 24.9034C29.733 24.9034 28.9351 25.1259 28.2202 25.571C27.5099 26.0161 26.9441 26.6719 26.5227 27.5384C26.1061 28.4048 25.8977 29.4678 25.8977 30.7273C25.8977 31.9867 26.1061 33.0497 26.5227 33.9162C26.9441 34.7827 27.5099 35.4384 28.2202 35.8835C28.9351 36.3286 29.733 36.5511 30.6136 36.5511C31.0966 36.5511 31.5606 36.4848 32.0057 36.3523C32.4508 36.2197 32.8556 36.0232 33.2202 35.7628C33.5895 35.4976 33.902 35.1733 34.1577 34.7898C34.4181 34.4015 34.6004 33.9564 34.7045 33.4545H36.4659C36.3333 34.1979 36.0919 34.8632 35.7415 35.4503C35.3911 36.0374 34.9555 36.5369 34.4347 36.9489C33.9138 37.3561 33.3291 37.6662 32.6804 37.8793C32.0365 38.0923 31.3475 38.1989 30.6136 38.1989C29.3731 38.1989 28.2699 37.8958 27.304 37.2898C26.3381 36.6837 25.5781 35.822 25.0241 34.7045C24.4702 33.5871 24.1932 32.2614 24.1932 30.7273C24.1932 29.1932 24.4702 27.8674 25.0241 26.75C25.5781 25.6326 26.3381 24.7708 27.304 24.1648C28.2699 23.5587 29.3731 23.2557 30.6136 23.2557C31.3475 23.2557 32.0365 23.3622 32.6804 23.5753C33.3291 23.7884 33.9138 24.1009 34.4347 24.5128C34.9555 24.92 35.3911 25.4171 35.7415 26.0043C36.0919 26.5866 36.3333 27.2519 36.4659 28ZM45.9599 33.5398V27.0909H47.636V38H45.9599V36.1534H45.8462C45.5906 36.7074 45.1928 37.1785 44.6531 37.5668C44.1133 37.9503 43.4315 38.142 42.6076 38.142C41.9258 38.142 41.3197 37.9929 40.7894 37.6946C40.2591 37.3916 39.8424 36.937 39.5394 36.331C39.2364 35.7202 39.0849 34.9508 39.0849 34.0227V27.0909H40.761V33.9091C40.761 34.7045 40.9835 35.339 41.4286 35.8125C41.8784 36.286 42.4513 36.5227 43.1474 36.5227C43.564 36.5227 43.9878 36.4162 44.4187 36.2031C44.8543 35.9901 45.2189 35.6634 45.5124 35.223C45.8107 34.7827 45.9599 34.2216 45.9599 33.5398ZM50.706 38V27.0909H52.3821V38H50.706ZM51.5582 25.2727C51.2315 25.2727 50.9498 25.1615 50.7131 24.9389C50.4811 24.7164 50.3651 24.4489 50.3651 24.1364C50.3651 23.8239 50.4811 23.5563 50.7131 23.3338C50.9498 23.1113 51.2315 23 51.5582 23C51.8849 23 52.1643 23.1113 52.3963 23.3338C52.633 23.5563 52.7514 23.8239 52.7514 24.1364C52.7514 24.4489 52.633 24.7164 52.3963 24.9389C52.1643 25.1615 51.8849 25.2727 51.5582 25.2727ZM63.1793 29.5341L61.6737 29.9602C61.579 29.7093 61.4393 29.4654 61.2546 29.2287C61.0747 28.9872 60.8285 28.7884 60.516 28.6321C60.2035 28.4759 59.8034 28.3977 59.3157 28.3977C58.6481 28.3977 58.0917 28.5516 57.6467 28.8594C57.2063 29.1624 56.9862 29.5483 56.9862 30.017C56.9862 30.4337 57.1377 30.7628 57.4407 31.0043C57.7437 31.2457 58.2172 31.447 58.8612 31.608L60.4805 32.0057C61.4558 32.2424 62.1826 32.6046 62.6609 33.0923C63.1391 33.5753 63.3782 34.1979 63.3782 34.9602C63.3782 35.5852 63.1983 36.1439 62.8384 36.6364C62.4833 37.1288 61.9862 37.517 61.3469 37.8011C60.7077 38.0852 59.9644 38.2273 59.1168 38.2273C58.0041 38.2273 57.0832 37.9858 56.354 37.5028C55.6249 37.0199 55.1632 36.3144 54.9691 35.3864L56.56 34.9886C56.7115 35.5758 56.998 36.0161 57.4194 36.3097C57.8455 36.6032 58.4019 36.75 59.0884 36.75C59.8697 36.75 60.4899 36.5843 60.9492 36.2528C61.4132 35.9167 61.6452 35.5142 61.6452 35.0455C61.6452 34.6667 61.5127 34.3494 61.2475 34.0938C60.9824 33.8333 60.5752 33.6392 60.0259 33.5114L58.2077 33.0852C57.2087 32.8485 56.4748 32.4815 56.006 31.9844C55.542 31.4825 55.31 30.8551 55.31 30.1023C55.31 29.4867 55.4828 28.9422 55.8285 28.4688C56.1789 27.9953 56.6547 27.6236 57.256 27.3537C57.8621 27.0838 58.5487 26.9489 59.3157 26.9489C60.3952 26.9489 61.2428 27.1856 61.8583 27.6591C62.4786 28.1326 62.9189 28.7576 63.1793 29.5341ZM65.9013 38V27.0909H67.5774V38H65.9013ZM66.7536 25.2727C66.4268 25.2727 66.1451 25.1615 65.9084 24.9389C65.6764 24.7164 65.5604 24.4489 65.5604 24.1364C65.5604 23.8239 65.6764 23.5563 65.9084 23.3338C66.1451 23.1113 66.4268 23 66.7536 23C67.0803 23 67.3596 23.1113 67.5916 23.3338C67.8284 23.5563 67.9467 23.8239 67.9467 24.1364C67.9467 24.4489 67.8284 24.7164 67.5916 24.9389C67.3596 25.1615 67.0803 25.2727 66.7536 25.2727ZM72.3235 31.4375V38H70.6474V27.0909H72.2667V28.7955H72.4087C72.6644 28.2415 73.0527 27.7964 73.5735 27.4602C74.0943 27.1193 74.7667 26.9489 75.5906 26.9489C76.3292 26.9489 76.9755 27.1004 77.5295 27.4034C78.0835 27.7017 78.5143 28.1562 78.8221 28.767C79.1299 29.3731 79.2837 30.1402 79.2837 31.0682V38H77.6076V31.1818C77.6076 30.3248 77.3851 29.6572 76.94 29.179C76.4949 28.696 75.8841 28.4545 75.1076 28.4545C74.5726 28.4545 74.0943 28.5705 73.6729 28.8026C73.2563 29.0346 72.9272 29.3731 72.6857 29.8182C72.4442 30.2633 72.3235 30.803 72.3235 31.4375ZM86.9205 38.2273C85.8693 38.2273 84.9626 37.9953 84.2003 37.5312C83.4427 37.0625 82.858 36.4091 82.446 35.571C82.0388 34.7282 81.8352 33.7481 81.8352 32.6307C81.8352 31.5133 82.0388 30.5284 82.446 29.6761C82.858 28.8191 83.4309 28.1515 84.1648 27.6733C84.9034 27.1903 85.7652 26.9489 86.75 26.9489C87.3182 26.9489 87.8793 27.0436 88.4332 27.233C88.9872 27.4223 89.4915 27.7301 89.946 28.1562C90.4006 28.5777 90.7628 29.1364 91.0327 29.8324C91.3026 30.5284 91.4375 31.3854 91.4375 32.4034V33.1136H83.0284V31.6648H89.733C89.733 31.0492 89.6098 30.5 89.3636 30.017C89.1222 29.5341 88.7765 29.1529 88.3267 28.8736C87.8816 28.5942 87.3561 28.4545 86.75 28.4545C86.0824 28.4545 85.5047 28.6203 85.017 28.9517C84.5341 29.2784 84.1624 29.7045 83.902 30.2301C83.6416 30.7557 83.5114 31.3191 83.5114 31.9205V32.8864C83.5114 33.7102 83.6534 34.4086 83.9375 34.9815C84.2263 35.5497 84.6264 35.983 85.1378 36.2812C85.6491 36.5748 86.2434 36.7216 86.9205 36.7216C87.3608 36.7216 87.7585 36.66 88.1136 36.5369C88.4735 36.4091 88.7836 36.2197 89.044 35.9688C89.3045 35.7131 89.5057 35.3958 89.6477 35.017L91.267 35.4716C91.0966 36.0208 90.8101 36.5038 90.4077 36.9205C90.0052 37.3324 89.508 37.6544 88.9162 37.8864C88.3243 38.1136 87.6591 38.2273 86.9205 38.2273Z" fill="#3B413A"/>
</g>
</g>
<defs>
<filter id="filter0_b_8_22" x="-4" y="-1" width="99.4375" height="45.5969" filterUnits="userSpaceOnUse" color-interpolation-filters="sRGB">
<feFlood flood-opacity="0" result="BackgroundImageFix"/>
<feGaussianBlur in="BackgroundImageFix" stdDeviation="2"/>
<feComposite in2="SourceAlpha" operator="in" result="effect1_backgroundBlur_8_22"/>
<feBlend mode="normal" in="SourceGraphic" in2="effect1_backgroundBlur_8_22" result="shape"/>
</filter>
<filter id="filter1_i_8_22" x="23.0227" y="4.5" width="61.1079" height="17.7301" filterUnits="userSpaceOnUse" color-interpolation-filters="sRGB">
<feFlood flood-opacity="0" result="BackgroundImageFix"/>
<feBlend mode="normal" in="SourceGraphic" in2="BackgroundImageFix" result="shape"/>
<feColorMatrix in="SourceAlpha" type="matrix" values="0 0 0 0 0 0 0 0 0 0 0 0 0 0 0 0 0 0 127 0" result="hardAlpha"/>
<feOffset dy="4"/>
<feGaussianBlur stdDeviation="2"/>
<feComposite in2="hardAlpha" operator="arithmetic" k2="-1" k3="1"/>
<feColorMatrix type="matrix" values="0 0 0 0 0 0 0 0 0 0 0 0 0 0 0 0 0 0 0.25 0"/>
<feBlend mode="normal" in2="shape" result="effect1_innerShadow_8_22"/>
</filter>
<filter id="filter2_i_8_22" x="24.1932" y="23" width="67.2443" height="19.2273" filterUnits="userSpaceOnUse" color-interpolation-filters="sRGB">
<feFlood flood-opacity="0" result="BackgroundImageFix"/>
<feBlend mode="normal" in="SourceGraphic" in2="BackgroundImageFix" result="shape"/>
<feColorMatrix in="SourceAlpha" type="matrix" values="0 0 0 0 0 0 0 0 0 0 0 0 0 0 0 0 0 0 127 0" result="hardAlpha"/>
<feOffset dy="4"/>
<feGaussianBlur stdDeviation="2"/>
<feComposite in2="hardAlpha" operator="arithmetic" k2="-1" k3="1"/>
<feColorMatrix type="matrix" values="0 0 0 0 0 0 0 0 0 0 0 0 0 0 0 0 0 0 0.25 0"/>
<feBlend mode="normal" in2="shape" result="effect1_innerShadow_8_22"/>
</filter>
</defs>
</svg>
